<svg xmlns="http://www.w3.org/2000/svg" viewBox="0 0 400 400" width="400" height="400">
  <!-- Background -->
  <rect width="400" height="400" fill="#14b8a6"/>

  <!-- Main container with rounded corners for modern look -->
  <rect x="30" y="30" width="340" height="340" rx="20" fill="rgba(255,255,255,0.1)"/>

  <!-- Neural Network Pattern (AI Symbol) -->
  <g id="neural-network" opacity="0.9">
    <!-- Neurons (circles) -->
    <circle cx="120" cy="150" r="15" fill="#ffffff" opacity="0.8"/>
    <circle cx="200" cy="120" r="15" fill="#ffffff" opacity="0.8"/>
    <circle cx="280" cy="150" r="15" fill="#ffffff" opacity="0.8"/>
    <circle cx="120" cy="250" r="15" fill="#ffffff" opacity="0.8"/>
    <circle cx="200" cy="280" r="15" fill="#ffffff" opacity="0.8"/>
    <circle cx="280" cy="250" r="15" fill="#ffffff" opacity="0.8"/>
    <circle cx="200" cy="200" r="20" fill="#06b6d4" opacity="0.9"/>

    <!-- Connections (lines) -->
    <line x1="120" y1="150" x2="200" y2="200" stroke="#ffffff" stroke-width="2" opacity="0.6"/>
    <line x1="200" y1="120" x2="200" y2="200" stroke="#ffffff" stroke-width="2" opacity="0.6"/>
    <line x1="280" y1="150" x2="200" y2="200" stroke="#ffffff" stroke-width="2" opacity="0.6"/>
    <line x1="120" y1="250" x2="200" y2="200" stroke="#ffffff" stroke-width="2" opacity="0.6"/>
    <line x1="200" y1="280" x2="200" y2="200" stroke="#ffffff" stroke-width="2" opacity="0.6"/>
    <line x1="280" y1="250" x2="200" y2="200" stroke="#ffffff" stroke-width="2" opacity="0.6"/>
  </g>

  <!-- Medical Cross (Health Symbol) - Stylized -->
  <g id="medical-cross" transform="translate(200, 200)">
    <!-- Vertical bar -->
    <rect x="-8" y="-60" width="16" height="120" rx="4" fill="#ffffff" opacity="0.95"/>
    <!-- Horizontal bar -->
    <rect x="-60" y="-8" width="120" height="16" rx="4" fill="#ffffff" opacity="0.95"/>
  </g>

  <!-- DNA Helix accent (subtle, in corners) -->
  <g id="dna-helix" opacity="0.3">
    <!-- Top left -->
    <path d="M 60 60 Q 70 75, 60 90" stroke="#ffffff" stroke-width="2" fill="none"/>
    <path d="M 75 60 Q 65 75, 75 90" stroke="#ffffff" stroke-width="2" fill="none"/>

    <!-- Top right -->
    <path d="M 340 60 Q 330 75, 340 90" stroke="#ffffff" stroke-width="2" fill="none"/>
    <path d="M 325 60 Q 335 75, 325 90" stroke="#ffffff" stroke-width="2" fill="none"/>

    <!-- Bottom left -->
    <path d="M 60 310 Q 70 325, 60 340" stroke="#ffffff" stroke-width="2" fill="none"/>
    <path d="M 75 310 Q 65 325, 75 340" stroke="#ffffff" stroke-width="2" fill="none"/>

    <!-- Bottom right -->
    <path d="M 340 310 Q 330 325, 340 340" stroke="#ffffff" stroke-width="2" fill="none"/>
    <path d="M 325 310 Q 335 325, 325 340" stroke="#ffffff" stroke-width="2" fill="none"/>
  </g>

  <!-- Circuit pattern accent (subtle) -->
  <g id="circuit" opacity="0.2">
    <line x1="350" y1="50" x2="370" y2="50" stroke="#ffffff" stroke-width="1.5"/>
    <circle cx="370" cy="50" r="3" fill="#ffffff"/>
    <line x1="30" y1="350" x2="50" y2="350" stroke="#ffffff" stroke-width="1.5"/>
    <circle cx="50" cy="350" r="3" fill="#ffffff"/>
  </g>

  <!-- Initials or acronym (optional) -->
  <text x="200" y="385" font-family="Arial, sans-serif" font-size="24" font-weight="bold" text-anchor="middle" fill="#ffffff" opacity="0.8">HAH</text>
</svg>