<svg xmlns="http://www.w3.org/2000/svg" viewBox="0 0 100 100">
  <!-- Black background -->
  <rect width="100" height="100" fill="#000000" rx="20"/>

  <!-- AI Neural Network Nodes (left side) -->
  <circle cx="25" cy="30" r="4" fill="#ffffff"/>
  <circle cx="25" cy="50" r="4" fill="#ffffff"/>
  <circle cx="25" cy="70" r="4" fill="#ffffff"/>

  <!-- Middle layer -->
  <circle cx="50" cy="20" r="4" fill="#ffffff"/>
  <circle cx="50" cy="50" r="5" fill="#ffffff"/>
  <circle cx="50" cy="80" r="4" fill="#ffffff"/>

  <!-- Right layer -->
  <circle cx="75" cy="35" r="4" fill="#ffffff"/>
  <circle cx="75" cy="65" r="4" fill="#ffffff"/>

  <!-- Neural connections (lines) -->
  <line x1="25" y1="30" x2="50" y2="20" stroke="#ffffff" stroke-width="1.5" opacity="0.4"/>
  <line x1="25" y1="30" x2="50" y2="50" stroke="#ffffff" stroke-width="1.5" opacity="0.4"/>
  <line x1="25" y1="50" x2="50" y2="50" stroke="#ffffff" stroke-width="2" opacity="0.6"/>
  <line x1="25" y1="50" x2="50" y2="80" stroke="#ffffff" stroke-width="1.5" opacity="0.4"/>
  <line x1="25" y1="70" x2="50" y2="50" stroke="#ffffff" stroke-width="1.5" opacity="0.4"/>
  <line x1="25" y1="70" x2="50" y2="80" stroke="#ffffff" stroke-width="1.5" opacity="0.4"/>

  <line x1="50" y1="20" x2="75" y2="35" stroke="#ffffff" stroke-width="1.5" opacity="0.4"/>
  <line x1="50" y1="50" x2="75" y2="35" stroke="#ffffff" stroke-width="2" opacity="0.6"/>
  <line x1="50" y1="50" x2="75" y2="65" stroke="#ffffff" stroke-width="2" opacity="0.6"/>
  <line x1="50" y1="80" x2="75" y2="65" stroke="#ffffff" stroke-width="1.5" opacity="0.4"/>

  <!-- Heartbeat/EKG line overlay (subtle) -->
  <path d="M 10 50 L 20 50 L 23 45 L 26 55 L 29 50 L 90 50"
        stroke="#ffffff"
        stroke-width="1"
        fill="none"
        opacity="0.3"/>
</svg>
